<svg width="391" height="131" viewBox="0 0 391 131" fill="none" xmlns="http://www.w3.org/2000/svg">
<path d="M67.272 65.104C67.272 67.408 66.8027 69.072 65.864 70.096C64.9253 71.0347 63.2187 71.504 60.744 71.504H21.064C22.0027 74.7467 24.0933 77.4347 27.336 79.568C30.5787 81.616 34.8027 82.64 40.008 82.64C44.616 82.64 48.8827 82.0853 52.808 80.976C56.7333 79.8667 58.7387 79.312 58.824 79.312C61.128 79.312 62.28 80.5493 62.28 83.024V90.448C62.28 93.264 61.384 95.2267 59.592 96.336C55.0693 99.152 47.8587 100.56 37.96 100.56C27.2933 100.56 18.4187 97.4027 11.336 91.088C4.33867 84.7733 0.84 76.1973 0.84 65.36C0.84 55.5467 3.99733 47.2267 10.312 40.4C16.712 33.5733 24.6907 30.16 34.248 30.16C44.8293 30.16 52.9787 33.3173 58.696 39.632C64.4133 45.8613 67.272 54.352 67.272 65.104ZM34.504 47.312C30.7493 47.312 27.6773 48.336 25.288 50.384C22.984 52.3467 21.5333 54.992 20.936 58.32H47.432C47.0053 54.992 45.6827 52.3467 43.464 50.384C41.3307 48.336 38.344 47.312 34.504 47.312ZM162.261 30.16C171.818 30.16 179.157 33.2747 184.277 39.504C189.397 45.648 191.957 54.1813 191.957 65.104V91.216C191.957 93.6907 191.402 95.44 190.293 96.464C189.269 97.488 187.562 98 185.173 98H178.261C175.872 98 174.122 97.488 173.013 96.464C171.989 95.44 171.477 93.6907 171.477 91.216V66.512C171.477 55.248 167.381 49.616 159.189 49.616C154.922 49.616 151.637 51.152 149.333 54.224C147.029 57.2107 145.877 61.392 145.877 66.768V91.216C145.877 93.6907 145.322 95.44 144.213 96.464C143.189 97.488 141.482 98 139.093 98H132.181C129.792 98 128.042 97.488 126.933 96.464C125.909 95.44 125.397 93.6907 125.397 91.216V66.512C125.397 55.248 121.301 49.616 113.109 49.616C108.842 49.616 105.557 51.152 103.253 54.224C100.949 57.2107 99.797 61.392 99.797 66.768V91.216C99.797 93.6053 99.285 95.3547 98.261 96.464C97.237 97.488 95.4877 98 93.013 98H86.101C83.6263 98 81.877 97.488 80.853 96.464C79.829 95.3547 79.317 93.6053 79.317 91.216V36.048C79.317 32.976 80.6397 31.44 83.285 31.44C85.077 31.44 87.0823 32.208 89.301 33.744C91.5197 35.1947 93.4823 37.2853 95.189 40.016C97.6637 36.8587 100.778 34.4267 104.533 32.72C108.373 31.0133 112.256 30.16 116.181 30.16C126.592 30.16 134.272 33.5307 139.221 40.272C141.866 37.1147 145.28 34.64 149.461 32.848C153.642 31.056 157.909 30.16 162.261 30.16ZM216.807 22.352C213.564 22.352 210.791 21.2853 208.487 19.152C206.268 16.9333 205.159 14.288 205.159 11.216C205.159 8.05866 206.268 5.41333 208.487 3.28C210.791 1.14666 213.564 0.0799942 216.807 0.0799942C219.964 0.0799942 222.695 1.18933 224.999 3.408C227.303 5.54133 228.455 8.14399 228.455 11.216C228.455 14.288 227.303 16.9333 224.999 19.152C222.695 21.2853 219.964 22.352 216.807 22.352ZM213.351 98C210.962 98 209.212 97.488 208.103 96.464C207.079 95.44 206.567 93.6907 206.567 91.216V39.504C206.567 37.0293 207.079 35.28 208.103 34.256C209.212 33.232 210.962 32.72 213.351 32.72H220.263C222.652 32.72 224.359 33.232 225.383 34.256C226.492 35.28 227.047 37.0293 227.047 39.504V91.216C227.047 93.6907 226.492 95.44 225.383 96.464C224.359 97.488 222.652 98 220.263 98H213.351ZM273.65 130.64C262.898 130.64 254.237 127.952 247.666 122.576C241.095 117.2 237.81 110.075 237.81 101.2C237.81 96.336 239.047 91.728 241.522 87.376C243.997 82.9387 247.325 79.6533 251.506 77.52C244.765 71.9733 241.394 65.4027 241.394 57.808C241.394 49.9573 244.253 43.5147 249.97 38.48C255.687 33.36 263.239 30.8 272.626 30.8C276.807 30.8 280.903 31.1413 284.914 31.824C289.01 32.4213 291.954 32.72 293.746 32.72C297.842 32.72 302.023 31.568 306.29 29.264C307.911 28.4107 309.277 27.984 310.386 27.984C313.031 27.984 314.354 29.904 314.354 33.744C314.354 41.424 310.898 46.5013 303.986 48.976C305.266 51.6213 305.906 54.5653 305.906 57.808C305.906 65.1467 302.535 71.7173 295.794 77.52C299.975 79.568 303.303 82.8107 305.778 87.248C308.253 91.6 309.49 96.2507 309.49 101.2C309.49 110.075 306.205 117.2 299.634 122.576C293.149 127.952 284.487 130.64 273.65 130.64ZM264.69 67.536C267.165 69.84 270.151 70.992 273.65 70.992C277.149 70.992 280.093 69.84 282.482 67.536C284.957 65.1467 286.194 62.288 286.194 58.96C286.194 55.376 285.042 52.4747 282.738 50.256C280.434 48.0373 277.405 46.928 273.65 46.928C269.895 46.928 266.866 48.0373 264.562 50.256C262.258 52.4747 261.106 55.376 261.106 58.96C261.106 62.288 262.301 65.1467 264.69 67.536ZM273.65 114C278.002 114 281.671 112.677 284.658 110.032C287.73 107.472 289.266 104.315 289.266 100.56C289.266 96.5493 287.815 93.3067 284.914 90.832C282.098 88.3573 278.343 87.12 273.65 87.12C268.957 87.12 265.159 88.3573 262.258 90.832C259.442 93.3067 258.034 96.5493 258.034 100.56C258.034 104.315 259.527 107.472 262.514 110.032C265.501 112.677 269.213 114 273.65 114ZM379.926 90.576C373.014 97.232 364.353 100.56 353.942 100.56C343.531 100.56 334.87 97.232 327.958 90.576C321.046 83.92 317.59 75.5147 317.59 65.36C317.59 55.12 321.046 46.7147 327.958 40.144C334.87 33.488 343.531 30.16 353.942 30.16C364.353 30.16 373.014 33.488 379.926 40.144C386.838 46.7147 390.294 55.12 390.294 65.36C390.294 75.5147 386.838 83.92 379.926 90.576ZM342.55 77.52C345.366 80.592 349.163 82.128 353.942 82.128C358.721 82.128 362.518 80.592 365.334 77.52C368.15 74.3627 369.558 70.3093 369.558 65.36C369.558 60.4107 368.15 56.4 365.334 53.328C362.518 50.1707 358.721 48.592 353.942 48.592C349.163 48.592 345.366 50.1707 342.55 53.328C339.734 56.4 338.326 60.4107 338.326 65.36C338.326 70.3093 339.734 74.3627 342.55 77.52Z" fill="#24A9E1"/>
</svg>
